<svg xmlns="http://www.w3.org/2000/svg" width="1440" height="720" viewBox="0 0 1440 720">
<defs>
  <linearGradient id="goldGrad" x1="0" y1="0" x2="1" y2="1"><stop offset="0" stop-color="#F7D774"/><stop offset="0.55" stop-color="#D9A441"/><stop offset="1" stop-color="#93661C"/></linearGradient>
  <linearGradient id="greenGrad" x1="0" y1="0" x2="1" y2="1"><stop offset="0" stop-color="#22A44F"/><stop offset="1" stop-color="#0C6B2A"/></linearGradient>
  <linearGradient id="navyGrad" x1="0" y1="0" x2="1" y2="1"><stop offset="0" stop-color="#0B3048"/><stop offset="1" stop-color="#061827"/></linearGradient>
  <filter id="shadow" x="-20%" y="-20%" width="140%" height="140%"><feDropShadow dx="0" dy="8" stdDeviation="10" flood-color="#000000" flood-opacity="0.28"/></filter>
</defs>
<rect width="1440" height="720" fill="url(#navyGrad)"/>
<ellipse cx="720" cy="730" rx="740" ry="210" fill="#16883A" opacity=".75"/>
<path d="M0 605C280 520 480 635 720 575s420-85 720 40v105H0z" fill="#0B5F2A" opacity=".7"/>
<circle cx="1140" cy="220" r="110" fill="url(#goldGrad)" opacity=".65"/>
<g opacity=".55" stroke="#F7D774" stroke-width="5"><path d="M140 160h320"/><path d="M930 160h320"/><path d="M205 210h120"/><path d="M1050 210h150"/></g>
<g fill="#F7D774" opacity=".9"><rect x="160" y="90" width="12" height="34" rx="5" transform="rotate(25 160 90)"/><rect x="540" y="130" width="10" height="28" rx="5" transform="rotate(-25 540 130)"/><rect x="1100" y="90" width="12" height="34" rx="5" transform="rotate(25 1100 90)"/><rect x="1260" y="330" width="10" height="28" rx="5" transform="rotate(-25 1260 330)"/></g>
</svg>