<svg xmlns="http://www.w3.org/2000/svg" width="512" height="512" viewBox="0 0 512 512">
<defs>
  <linearGradient id="goldGrad" x1="0" y1="0" x2="1" y2="1"><stop offset="0" stop-color="#F7D774"/><stop offset="0.55" stop-color="#D9A441"/><stop offset="1" stop-color="#93661C"/></linearGradient>
  <linearGradient id="greenGrad" x1="0" y1="0" x2="1" y2="1"><stop offset="0" stop-color="#22A44F"/><stop offset="1" stop-color="#0C6B2A"/></linearGradient>
  <linearGradient id="navyGrad" x1="0" y1="0" x2="1" y2="1"><stop offset="0" stop-color="#0B3048"/><stop offset="1" stop-color="#061827"/></linearGradient>
  <filter id="shadow" x="-20%" y="-20%" width="140%" height="140%"><feDropShadow dx="0" dy="8" stdDeviation="10" flood-color="#000000" flood-opacity="0.28"/></filter>
</defs>
<rect width="512" height="512" rx="96" fill="url(#navyGrad)"/>
<circle cx="256" cy="256" r="150" fill="#fff" filter="url(#shadow)"/>
<polygon points="256,154 313,195 291,262 221,262 199,195" fill="#111"/>
<path d="M199 195l-58-20M313 195l58-20M221 262l-37 61M291 262l37 61M256 154V91" stroke="#111" stroke-width="18" stroke-linecap="round" fill="none"/>
<path d="M141 175a150 150 0 0 0 43 148M371 175a150 150 0 0 1-43 148M256 406a150 150 0 0 0 72-83M256 406a150 150 0 0 1-72-83" stroke="#111" stroke-width="16" fill="none" opacity=".9"/>
</svg>