<svg xmlns="http://www.w3.org/2000/svg" width="512" height="512" viewBox="0 0 512 512">
<defs>
  <linearGradient id="goldGrad" x1="0" y1="0" x2="1" y2="1"><stop offset="0" stop-color="#F7D774"/><stop offset="0.55" stop-color="#D9A441"/><stop offset="1" stop-color="#93661C"/></linearGradient>
  <linearGradient id="greenGrad" x1="0" y1="0" x2="1" y2="1"><stop offset="0" stop-color="#22A44F"/><stop offset="1" stop-color="#0C6B2A"/></linearGradient>
  <linearGradient id="navyGrad" x1="0" y1="0" x2="1" y2="1"><stop offset="0" stop-color="#0B3048"/><stop offset="1" stop-color="#061827"/></linearGradient>
  <filter id="shadow" x="-20%" y="-20%" width="140%" height="140%"><feDropShadow dx="0" dy="8" stdDeviation="10" flood-color="#000000" flood-opacity="0.28"/></filter>
</defs>
<rect width="512" height="512" rx="96" fill="url(#navyGrad)"/>
<rect x="110" y="206" width="292" height="214" rx="30" fill="url(#goldGrad)" filter="url(#shadow)"/><rect x="90" y="154" width="332" height="84" rx="24" fill="#F7D774"/><path d="M256 154v266" stroke="#93661C" stroke-width="22"/><path d="M256 154c-60-68-134-45-122 7 9 40 63 31 122-7zM256 154c60-68 134-45 122 7-9 40-63 31-122-7z" fill="none" stroke="#D9A441" stroke-width="24" stroke-linecap="round"/>
</svg>