<svg xmlns="http://www.w3.org/2000/svg" width="512" height="512" viewBox="0 0 512 512">
<defs>
  <linearGradient id="goldGrad" x1="0" y1="0" x2="1" y2="1"><stop offset="0" stop-color="#F7D774"/><stop offset="0.55" stop-color="#D9A441"/><stop offset="1" stop-color="#93661C"/></linearGradient>
  <linearGradient id="greenGrad" x1="0" y1="0" x2="1" y2="1"><stop offset="0" stop-color="#22A44F"/><stop offset="1" stop-color="#0C6B2A"/></linearGradient>
  <linearGradient id="navyGrad" x1="0" y1="0" x2="1" y2="1"><stop offset="0" stop-color="#0B3048"/><stop offset="1" stop-color="#061827"/></linearGradient>
  <filter id="shadow" x="-20%" y="-20%" width="140%" height="140%"><feDropShadow dx="0" dy="8" stdDeviation="10" flood-color="#000000" flood-opacity="0.28"/></filter>
</defs>
<rect width="512" height="512" rx="96" fill="url(#navyGrad)"/>
<circle cx="256" cy="178" r="62" fill="url(#goldGrad)"/><circle cx="144" cy="232" r="50" fill="#F7D774" opacity=".9"/><circle cx="368" cy="232" r="50" fill="#F7D774" opacity=".9"/>
<path d="M153 376c12-77 58-122 103-122s91 45 103 122" fill="url(#goldGrad)" filter="url(#shadow)"/><path d="M70 396c8-62 39-101 74-101s66 39 74 101" fill="#F7D774" opacity=".9"/><path d="M294 396c8-62 39-101 74-101s66 39 74 101" fill="#F7D774" opacity=".9"/>
</svg>